<svg xmlns="http://www.w3.org/2000/svg" style="display:none">
  <!-- AI 助手 / 智能 -->
  <symbol id="icon-ai" viewBox="0 0 24 24" fill="none" stroke="currentColor" stroke-width="1.5" stroke-linecap="round" stroke-linejoin="round">
    <path d="M12 2a4 4 0 0 1 4 4v1a4 4 0 0 1-8 0V6a4 4 0 0 1 4-4z"/>
    <path d="M8 11a4 4 0 0 0-4 4v1a2 2 0 0 0 2 2h12a2 2 0 0 0 2-2v-1a4 4 0 0 0-4-4"/>
    <path d="M12 17v3"/>
    <path d="M9 22h6"/>
  </symbol>

  <!-- 用户头像 -->
  <symbol id="icon-user" viewBox="0 0 24 24" fill="none" stroke="currentColor" stroke-width="1.5" stroke-linecap="round" stroke-linejoin="round">
    <circle cx="12" cy="8" r="4"/>
    <path d="M4 21v-1a6 6 0 0 1 6-6h4a6 6 0 0 1 6 6v1"/>
  </symbol>

  <!-- 发送 -->
  <symbol id="icon-send" viewBox="0 0 24 24" fill="none" stroke="currentColor" stroke-width="1.5" stroke-linecap="round" stroke-linejoin="round">
    <path d="M3 3l18 9-18 9 4-9z"/>
    <path d="M7 12H3"/>
  </symbol>

  <!-- 上传 -->
  <symbol id="icon-upload" viewBox="0 0 24 24" fill="none" stroke="currentColor" stroke-width="1.5" stroke-linecap="round" stroke-linejoin="round">
    <path d="M12 16V4"/>
    <path d="M8 8l4-4 4 4"/>
    <path d="M4 16v2a2 2 0 0 0 2 2h12a2 2 0 0 0 2-2v-2"/>
  </symbol>

  <!-- 下载 -->
  <symbol id="icon-download" viewBox="0 0 24 24" fill="none" stroke="currentColor" stroke-width="1.5" stroke-linecap="round" stroke-linejoin="round">
    <path d="M12 4v12"/>
    <path d="M8 12l4 4 4-4"/>
    <path d="M4 16v2a2 2 0 0 0 2 2h12a2 2 0 0 0 2-2v-2"/>
  </symbol>

  <!-- 删除 -->
  <symbol id="icon-delete" viewBox="0 0 24 24" fill="none" stroke="currentColor" stroke-width="1.5" stroke-linecap="round" stroke-linejoin="round">
    <path d="M3 6h18"/>
    <path d="M8 6V4a1 1 0 0 1 1-1h6a1 1 0 0 1 1 1v2"/>
    <path d="M10 11v6"/>
    <path d="M14 11v6"/>
    <path d="M5 6l1 13a2 2 0 0 0 2 2h8a2 2 0 0 0 2-2l1-13"/>
  </symbol>

  <!-- 可见（眼睛） -->
  <symbol id="icon-visibility" viewBox="0 0 24 24" fill="none" stroke="currentColor" stroke-width="1.5" stroke-linecap="round" stroke-linejoin="round">
    <path d="M1 12s4-8 11-8 11 8 11 8-4 8-11 8-11-8-11-8z"/>
    <circle cx="12" cy="12" r="3"/>
  </symbol>

  <!-- 不可见 -->
  <symbol id="icon-visibility-off" viewBox="0 0 24 24" fill="none" stroke="currentColor" stroke-width="1.5" stroke-linecap="round" stroke-linejoin="round">
    <path d="M3 3l18 18"/>
    <path d="M10.6 10.6a3 3 0 0 0 4.8 4.8"/>
    <path d="M9.4 5.2A10.9 10.9 0 0 1 12 4c7 0 11 8 11 8a20 20 0 0 1-3.5 4.9"/>
    <path d="M3.5 7.1A20 20 0 0 0 1 12s4 8 11 8c1.9 0 3.7-.4 5.3-1.1"/>
  </symbol>

  <!-- 拖拽 -->
  <symbol id="icon-drag" viewBox="0 0 24 24" fill="currentColor">
    <circle cx="9" cy="6" r="1.5"/>
    <circle cx="15" cy="6" r="1.5"/>
    <circle cx="9" cy="12" r="1.5"/>
    <circle cx="15" cy="12" r="1.5"/>
    <circle cx="9" cy="18" r="1.5"/>
    <circle cx="15" cy="18" r="1.5"/>
  </symbol>

  <!-- 放大 -->
  <symbol id="icon-zoom-in" viewBox="0 0 24 24" fill="none" stroke="currentColor" stroke-width="1.5" stroke-linecap="round" stroke-linejoin="round">
    <circle cx="11" cy="11" r="8"/>
    <path d="M21 21l-4.35-4.35"/>
    <path d="M11 8v6"/>
    <path d="M8 11h6"/>
  </symbol>

  <!-- 缩小 -->
  <symbol id="icon-zoom-out" viewBox="0 0 24 24" fill="none" stroke="currentColor" stroke-width="1.5" stroke-linecap="round" stroke-linejoin="round">
    <circle cx="11" cy="11" r="8"/>
    <path d="M21 21l-4.35-4.35"/>
    <path d="M8 11h6"/>
  </symbol>

  <!-- 定位 -->
  <symbol id="icon-locate" viewBox="0 0 24 24" fill="none" stroke="currentColor" stroke-width="1.5" stroke-linecap="round" stroke-linejoin="round">
    <circle cx="12" cy="12" r="2"/>
    <path d="M12 2v4"/>
    <path d="M12 18v4"/>
    <path d="M2 12h4"/>
    <path d="M18 12h4"/>
  </symbol>

  <!-- 文件 -->
  <symbol id="icon-file" viewBox="0 0 24 24" fill="none" stroke="currentColor" stroke-width="1.5" stroke-linecap="round" stroke-linejoin="round">
    <path d="M14 2H6a2 2 0 0 0-2 2v16a2 2 0 0 0 2 2h12a2 2 0 0 0 2-2V8z"/>
    <polyline points="14 2 14 8 20 8"/>
    <line x1="8" y1="13" x2="16" y2="13"/>
    <line x1="8" y1="17" x2="16" y2="17"/>
  </symbol>

  <!-- 时钟/等待 -->
  <symbol id="icon-clock" viewBox="0 0 24 24" fill="none" stroke="currentColor" stroke-width="1.5" stroke-linecap="round" stroke-linejoin="round">
    <circle cx="12" cy="12" r="10"/>
    <polyline points="12 6 12 12 16 14"/>
  </symbol>

  <!-- 成功勾 -->
  <symbol id="icon-check" viewBox="0 0 24 24" fill="none" stroke="currentColor" stroke-width="1.5" stroke-linecap="round" stroke-linejoin="round">
    <circle cx="12" cy="12" r="10"/>
    <path d="M9 12l2 2 4-4"/>
  </symbol>

  <!-- 错误 -->
  <symbol id="icon-error" viewBox="0 0 24 24" fill="none" stroke="currentColor" stroke-width="1.5" stroke-linecap="round" stroke-linejoin="round">
    <circle cx="12" cy="12" r="10"/>
    <line x1="15" y1="9" x2="9" y2="15"/>
    <line x1="9" y1="9" x2="15" y2="15"/>
  </symbol>

  <!-- 筛选 -->
  <symbol id="icon-filter" viewBox="0 0 24 24" fill="none" stroke="currentColor" stroke-width="1.5" stroke-linecap="round" stroke-linejoin="round">
    <polygon points="22 3 2 3 10 12.46 10 19 14 21 14 12.46 22 3"/>
  </symbol>

  <!-- 更多 -->
  <symbol id="icon-more" viewBox="0 0 24 24" fill="currentColor">
    <circle cx="12" cy="5" r="2"/>
    <circle cx="12" cy="12" r="2"/>
    <circle cx="12" cy="19" r="2"/>
  </symbol>

  <!-- 附件 -->
  <symbol id="icon-attach" viewBox="0 0 24 24" fill="none" stroke="currentColor" stroke-width="1.5" stroke-linecap="round" stroke-linejoin="round">
    <path d="M21.44 11.05l-9.19 9.19a6 6 0 0 1-8.49-8.49l9.19-9.19a4 4 0 0 1 5.66 5.66l-9.2 9.19a2 2 0 0 1-2.83-2.83l8.49-8.48"/>
  </symbol>

  <!-- 警告 -->
  <symbol id="icon-warning" viewBox="0 0 24 24" fill="none" stroke="currentColor" stroke-width="1.5" stroke-linecap="round" stroke-linejoin="round">
    <path d="M12 2L2 22h20L12 2z"/>
    <line x1="12" y1="10" x2="12" y2="14"/>
    <line x1="12" y1="17" x2="12.01" y2="17"/>
  </symbol>

  <!-- 信息 -->
  <symbol id="icon-info" viewBox="0 0 24 24" fill="none" stroke="currentColor" stroke-width="1.5" stroke-linecap="round" stroke-linejoin="round">
    <circle cx="12" cy="12" r="10"/>
    <path d="M12 16v-4"/>
    <path d="M12 8h.01"/>
  </symbol>

  <!-- 关闭 -->
  <symbol id="icon-close" viewBox="0 0 24 24" fill="none" stroke="currentColor" stroke-width="1.5" stroke-linecap="round" stroke-linejoin="round">
    <line x1="18" y1="6" x2="6" y2="18"/>
    <line x1="6" y1="6" x2="18" y2="18"/>
  </symbol>

  <!-- 搜索 -->
  <symbol id="icon-search" viewBox="0 0 24 24" fill="none" stroke="currentColor" stroke-width="1.5" stroke-linecap="round" stroke-linejoin="round">
    <circle cx="11" cy="11" r="8"/>
    <line x1="21" y1="21" x2="16.65" y2="16.65"/>
  </symbol>
</svg>